<?xml version="1.0" encoding="utf-8"?>
<!-- Generator: Adobe Illustrator 19.2.1, SVG Export Plug-In . SVG Version: 6.00 Build 0)  -->
<!DOCTYPE svg PUBLIC "-//W3C//DTD SVG 1.1//EN" "http://www.w3.org/Graphics/SVG/1.1/DTD/svg11.dtd">
<svg version="1.1" id="Layer_1" xmlns="http://www.w3.org/2000/svg" xmlns:xlink="http://www.w3.org/1999/xlink" x="0px" y="0px"
	 viewBox="0 0 89.1 33.8" style="enable-background:new 0 0 89.1 33.8;" xml:space="preserve">
<style type="text/css">
	.st0{fill:#ffffff;}
</style>
<g>
	<g>
		<g>
			<g>
				<path class="st0" d="M3.3,6.1c0.2,3,0.1,6.1,0,9.1c0,1.5-0.1,3.1-0.2,4.6c0,1.5,0.2,3,0.2,4.4c0,0.5,0.7,0.5,0.7,0
					c0-1.4-0.2-2.8-0.2-4.2c0-1.5,0.1-3.1,0.2-4.6c0.1-3.1,0.2-6.3,0-9.4C4,5.7,3.3,5.7,3.3,6.1L3.3,6.1z"/>
			</g>
			<g>
				<path class="st0" d="M4.4,25.1c1.5,0,2.9-0.1,4.4,0c1.5,0.1,2.9,0.3,4.4,0.2c2.9-0.1,5.9-0.2,8.8-0.2c3,0,6-0.1,9-0.1
					c2.9,0,5.8,0.2,8.6-0.2c0.5-0.1,0.3-0.8-0.2-0.7c-2.9,0.4-5.8,0.2-8.7,0.2c-3,0-6,0-9,0.1c-2.9,0-5.7,0-8.5,0.2
					c-1.5,0.1-2.9-0.1-4.4-0.2c-1.4-0.1-2.9,0-4.4,0C3.9,24.4,3.9,25.1,4.4,25.1L4.4,25.1z"/>
			</g>
			<g>
				<path class="st0" d="M39.5,24.9c1.4-0.2,2.7,0.1,4.1,0.1c1.5,0.1,3.1,0,4.6,0c3.1,0,6.1,0.1,9.2,0.2c5.4,0.1,10.9-0.2,16.3-0.2
					c0.5,0,0.5-0.7,0-0.7c-5.4,0-10.9,0.3-16.3,0.2c-3.1-0.1-6.1-0.2-9.2-0.2c-1.5,0-2.9,0-4.4,0c-1.5-0.1-2.9-0.3-4.4-0.2
					C39,24.2,39,24.9,39.5,24.9L39.5,24.9z"/>
			</g>
			<g>
				<path class="st0" d="M82.4,5.9c0.3,3.2-0.1,6.4-0.1,9.5c0,1.6,0,3.1,0,4.7c0,1.5-0.1,3.1,0,4.6c0,0.5,0.7,0.5,0.7,0
					c0-1.5,0.1-3.1,0-4.6c0-1.6,0-3.1,0-4.7c0-3.2,0.4-6.4,0.1-9.5C83.1,5.4,82.4,5.4,82.4,5.9L82.4,5.9z"/>
			</g>
			<g>
				<path class="st0" d="M3.9,5.9c6.8,0.4,13.6,0,20.4,0.1c2.7,0,5.4,0.1,8.1,0c3.3-0.1,6.6,0,9.8,0c0.5,0,0.5-0.7,0-0.7
					c-3.3,0-6.6-0.1-9.8,0c-2.7,0.1-5.4,0-8.1,0C17.6,5.2,10.7,5.6,3.9,5.2C3.5,5.2,3.5,5.9,3.9,5.9L3.9,5.9z"/>
			</g>
			<g>
				<path class="st0" d="M42,6.1C48.9,6,55.8,5.9,62.7,5.9c3.5,0,7.1,0,10.6,0.1c3.2,0.1,6.3-0.1,9.4-0.1c0.5,0,0.5-0.7,0-0.7
					c-3.1,0-6.1,0.1-9.2,0.1C70,5.2,66.5,5.2,63,5.2c-3.5,0-7,0.1-10.5,0.1c-3.5,0-7,0-10.4,0.1C41.5,5.4,41.5,6.1,42,6.1L42,6.1z"
					/>
			</g>
			<g>
				<path class="st0" d="M3.8,25c0.1,0.1,0.2,0.1,0.4,0.1c0.2,0,0.4-0.2,0.4-0.4c0-0.2-0.2-0.3-0.4-0.4c0,0,0,0,0.1,0c0,0,0,0,0,0
					c0,0-0.1,0-0.1,0c-0.2-0.1-0.4,0-0.5,0.1C3.6,24.7,3.6,24.9,3.8,25L3.8,25z"/>
			</g>
			<g>
				<path class="st0" d="M3.8,25.2c0.1,0.3,0.1,0.6,0.1,0.9c0,0.5,0.7,0.5,0.7,0c0-0.4,0-0.8-0.1-1.1C4.4,24.6,3.7,24.8,3.8,25.2
					L3.8,25.2z"/>
			</g>
			<g>
				<path class="st0" d="M4.4,26.5c2.1-0.3,4.2,0,6.2-0.1c2.4,0,4.8-0.1,7.2-0.2c4.9-0.1,9.8-0.1,14.7,0c0.5,0,0.5-0.7,0-0.7
					c-4.9-0.2-9.8-0.2-14.7,0c-2.5,0.1-5,0.2-7.5,0.2c-2.1,0-4.1-0.3-6.2,0.1C3.7,25.9,3.9,26.6,4.4,26.5L4.4,26.5z"/>
			</g>
			<g>
				<path class="st0" d="M32.8,26.3c3.8,0.2,7.5-0.2,11.3-0.1c1.9,0,3.8,0.1,5.7,0.1c1.9,0,3.8-0.1,5.7,0.1c0.5,0.1,0.5-0.7,0-0.7
					c-1.8-0.2-3.6-0.1-5.4-0.1c-1.9,0-3.8-0.1-5.7-0.1c-3.9-0.1-7.7,0.3-11.6,0.1C32.4,25.6,32.4,26.3,32.8,26.3L32.8,26.3z"/>
			</g>
			<g>
				<path class="st0" d="M55.5,26.6c4.5,0.1,9-0.2,13.5-0.2c2.2,0,4.4,0,6.7,0.1c2.2,0.1,4.4,0,6.6-0.1c0.5,0,0.5-0.7,0-0.7
					c-2.2,0.1-4.4,0.1-6.6,0.1c-2.2-0.1-4.4-0.1-6.7-0.1c-4.5,0-9,0.3-13.5,0.2C55,25.8,55,26.5,55.5,26.6L55.5,26.6z"/>
			</g>
			<g>
				<path class="st0" d="M81.9,25.4c0,0.1,0,0.3,0,0.4c0,0.2,0.2,0.4,0.4,0.4c0.2,0,0.4-0.2,0.4-0.4c0-0.1,0-0.3,0-0.4
					c0-0.2-0.2-0.4-0.4-0.4C82.1,25.1,81.9,25.2,81.9,25.4L81.9,25.4z"/>
			</g>
			<g>
				<path class="st0" d="M63,26.7c0.1,0.3,0.2,0.7,0.3,1c0.1,0.4,0.8,0.3,0.7-0.2c-0.1-0.4-0.2-0.8-0.4-1.2
					c-0.1-0.2-0.3-0.2-0.5-0.1C62.9,26.3,62.9,26.5,63,26.7L63,26.7z"/>
			</g>
			<g>
				<path class="st0" d="M64,28c2.7-0.3,5.3,0.3,8,0c0.5,0,0.5-0.8,0-0.7c-2.7,0.3-5.3-0.3-8,0C63.5,27.3,63.5,28,64,28L64,28z"/>
			</g>
			<g>
				<path class="st0" d="M72,26.5c0,0.3-0.1,0.6-0.2,1c0,0.2,0.2,0.4,0.4,0.4c0.2,0,0.3-0.2,0.4-0.4c0-0.3,0.2-0.6,0.2-1
					C72.7,26,72,26,72,26.5L72,26.5z"/>
			</g>
			<g>
				<path class="st0" d="M37.6,26.7c0.2,0.4,0.4,0.8,0.5,1.2c0.1,0.4,0.8,0.2,0.7-0.2c-0.2-0.5-0.4-0.9-0.6-1.3
					c-0.1-0.2-0.3-0.2-0.5-0.1C37.5,26.3,37.5,26.5,37.6,26.7L37.6,26.7z"/>
			</g>
			<g>
				<path class="st0" d="M38.7,28.2c1.3-0.1,2.6,0,3.9,0c1.2,0,2.4,0.2,3.6,0c0.5-0.1,0.3-0.8-0.2-0.7c-1.1,0.2-2.2,0-3.4,0
					c-1.3,0-2.6,0-3.9,0C38.2,27.5,38.2,28.3,38.7,28.2L38.7,28.2z"/>
			</g>
			<g>
				<path class="st0" d="M46.7,26.2c-0.2,0.4-0.4,0.8-0.5,1.2c-0.1,0.2-0.1,0.4,0.1,0.5c0.2,0.1,0.4,0,0.5-0.1
					c0.2-0.4,0.4-0.8,0.5-1.2c0.1-0.2,0.1-0.4-0.1-0.5C47,26,46.8,26,46.7,26.2L46.7,26.2z"/>
			</g>
			<g>
				<path class="st0" d="M11.9,26.8c0.2,0.3,0.3,0.5,0.4,0.8c0.2,0.4,0.8,0.2,0.7-0.2c-0.1-0.4-0.3-0.7-0.5-1
					C12.3,26,11.7,26.4,11.9,26.8L11.9,26.8z"/>
			</g>
			<g>
				<path class="st0" d="M13.3,28c2.5-0.1,4.9,0,7.4,0c0.5,0,0.5-0.7,0-0.7c-2.5,0-4.9-0.1-7.4,0C12.8,27.3,12.8,28,13.3,28L13.3,28
					z"/>
			</g>
			<g>
				<path class="st0" d="M21,26.2c-0.2,0.4-0.3,0.9-0.5,1.3c-0.2,0.4,0.4,0.8,0.6,0.4c0.2-0.5,0.4-1,0.6-1.5
					C21.9,26,21.2,25.8,21,26.2L21,26.2z"/>
			</g>
			<g>
				<path class="st0" d="M22.4,26.4c0,0.8,0.2,1.7,0.1,2.5c0,0.5,0.7,0.5,0.7,0c0.1-0.8-0.1-1.7-0.1-2.5
					C23.1,25.9,22.3,25.9,22.4,26.4L22.4,26.4z"/>
			</g>
			<g>
				<path class="st0" d="M22.9,29.3c1.3,0.6,2.5,0.3,3.7-0.2c0.4-0.2,0.2-0.9-0.2-0.7c-1,0.4-2.1,0.8-3.2,0.3
					C22.9,28.4,22.5,29.1,22.9,29.3L22.9,29.3z"/>
			</g>
			<g>
				<path class="st0" d="M26.2,26.2c0.1,0.7-0.1,1.5,0,2.2c0,0.5,0.8,0.5,0.7,0c-0.1-0.7,0.1-1.5,0-2.2
					C26.9,25.8,26.2,25.8,26.2,26.2L26.2,26.2z"/>
			</g>
			<g>
				<path class="st0" d="M4.6,26.3c-0.1,0.4,0.1,0.8,0.6,0.8c0.4,0,0.7-0.4,0.7-0.8c0-0.2-0.4-0.2-0.4,0c0,0.2-0.1,0.4-0.3,0.4
					c-0.2,0-0.3-0.1-0.2-0.3C5,26.2,4.6,26.1,4.6,26.3L4.6,26.3z"/>
			</g>
			<g>
				<path class="st0" d="M5.6,26.4C5.7,26.7,5.9,27,6.2,27c0.4,0,0.5-0.4,0.5-0.7c0-0.2-0.3-0.2-0.4,0c0,0.1,0,0.3-0.2,0.3
					c-0.2,0-0.2-0.2-0.3-0.3C5.9,26.1,5.5,26.2,5.6,26.4L5.6,26.4z"/>
			</g>
			<g>
				<path class="st0" d="M6.5,26.4c0,0.3,0.2,0.6,0.5,0.7c0.3,0,0.6-0.2,0.6-0.5c0.1-0.2-0.3-0.3-0.3-0.1c0,0.1-0.1,0.3-0.2,0.3
					c-0.1,0-0.2-0.2-0.2-0.3C6.8,26.2,6.5,26.2,6.5,26.4L6.5,26.4z"/>
			</g>
			<g>
				<path class="st0" d="M2.3,22.4c0.3,0,0.6,0,0.8,0c0.3,0,0.3-0.5,0-0.5c-0.3,0-0.6,0-0.8,0C2,21.9,2,22.4,2.3,22.4L2.3,22.4z"/>
			</g>
			<g>
				<path class="st0" d="M1.8,22.3c0,0.4-0.2,0.9,0.1,1.3c0.3,0.4,0.9,0.2,1.3,0.2c0.3,0.1,0.5-0.5,0.1-0.5c-0.2,0-0.4,0-0.5,0
					c-0.1,0-0.4,0-0.5,0c0,0,0-0.1,0-0.1c0-0.1,0-0.2,0-0.3c0-0.2,0.1-0.4,0-0.6C2.4,22,1.8,22,1.8,22.3L1.8,22.3z"/>
			</g>
			<g>
				<path class="st0" d="M1.3,23.5c0.2,0,0.4,0,0.6,0c0.3,0,0.3-0.5,0-0.5c-0.2,0-0.4,0-0.6,0C0.9,23,0.9,23.5,1.3,23.5L1.3,23.5z"
					/>
			</g>
			<g>
				<path class="st0" d="M1,23.4c0,0.2,0,0.3-0.1,0.5c0,0.2-0.1,0.2-0.3,0.2c0-0.1,0-0.2,0-0.3c0-0.3,0-0.5,0-0.8c0-0.4,0-0.8,0-1.1
					c0.1-0.3,0.2,0,0.3,0.1c0,0.2,0.1,0.3,0,0.5c0,0.1,0.1,0.2,0.2,0.3c0.3,0,0.5,0.1,0.8,0.1c0.3,0,0.3-0.5,0-0.5
					c-0.2,0-0.4,0-0.6,0c0.1,0.1,0.1,0.2,0.2,0.3c0.1-0.5-0.1-1.4-0.8-1.4c-0.7,0-0.7,1.3-0.6,1.7c0,0.5-0.1,1.6,0.4,1.8
					c0.8,0.2,1-0.7,1-1.2C1.5,23,1,23,1,23.4L1,23.4z"/>
			</g>
			<g>
				<path class="st0" d="M7.4,26.4c0,0.3,0,0.6,0,0.9c0,0.3,0.5,0.3,0.5,0c0-0.3,0-0.6,0-0.9C7.9,26,7.4,26,7.4,26.4L7.4,26.4z"/>
			</g>
			<g>
				<path class="st0" d="M7.4,27.1C6.4,27,5.3,27,4.2,27c-1.1,0-2.1-0.1-3.2-0.1c-0.3,0-0.3,0.5,0,0.5c1.1,0,2.1,0.1,3.2,0.1
					c1.1,0,2.2,0,3.3,0.1C7.8,27.6,7.8,27.1,7.4,27.1L7.4,27.1z"/>
			</g>
			<g>
				<path class="st0" d="M0.8,27.3c0,0.3,0,0.7,0,1c0,0.3,0.5,0.3,0.5,0c0-0.3-0.1-0.7,0-1C1.3,27,0.8,27,0.8,27.3L0.8,27.3z"/>
			</g>
			<g>
				<path class="st0" d="M1.2,28.6c2,0,4,0,6,0c0.8,0,3.1-0.2,1.8-1.4c-0.3-0.2-0.6,0.1-0.4,0.4c0.6,0.5-1.2,0.5-1.5,0.5
					c-0.7,0-1.3,0-2,0c-1.3,0-2.7,0-4,0C0.9,28,0.9,28.6,1.2,28.6L1.2,28.6z"/>
			</g>
			<g>
				<path class="st0" d="M9.1,27.2C9.1,27.1,9.1,27.1,9.1,27.2C9.1,27.1,9.1,27.1,9.1,27.2C9.1,27.1,9.1,27.1,9.1,27.2
					C9.2,27,9.3,27,9.3,27c0.2-0.2,0.2-0.4,0.2-0.6c0-0.1-0.2-0.2-0.3-0.2c-0.1,0-0.2,0.2-0.2,0.3c0,0,0,0.1,0,0.1c0,0,0,0,0,0
					c0,0,0-0.1,0-0.1c0,0,0,0,0,0c0,0-0.1,0-0.1,0c-0.2,0.1-0.3,0.2-0.4,0.4C8.5,27.3,9,27.5,9.1,27.2L9.1,27.2z"/>
			</g>
			<g>
				<path class="st0" d="M13.5,27.7c-0.4,1.3-0.8,2.8-0.2,4.1c0.6,1.3,2,2,3.5,2c1.3,0,2.7-0.6,3.5-1.7c1-1.4,0.3-3.4-0.6-4.7
					c-0.3-0.4-0.9,0-0.6,0.4c0.8,1.1,1.4,2.6,0.6,3.9c-0.6,0.9-1.8,1.3-2.8,1.3c-1.2,0-2.4-0.6-2.9-1.7c-0.5-1.1-0.1-2.4,0.3-3.5
					C14.4,27.5,13.7,27.3,13.5,27.7L13.5,27.7z"/>
			</g>
			<g>
				<path class="st0" d="M16.2,28.9c-0.4,0.3-0.5,0.8-0.4,1.3c0.2,0.5,0.7,0.7,1.2,0.6c0.5-0.1,0.9-0.6,0.8-1.1
					c-0.1-0.6-0.6-1-1.1-0.9c-0.6,0.1-0.9,0.6-0.6,1.1c0.2,0.4,0.7,0.6,1.1,0.3c0.2-0.2,0.3-0.6,0.2-0.9c-0.2-0.4-0.7-0.2-1,0
					c-0.3,0.3,0.2,0.8,0.5,0.5c0,0,0.1-0.1,0.1-0.1c0.1-0.1-0.1,0,0,0c-0.1,0-0.2,0-0.2-0.1c0,0-0.1-0.1,0-0.1c0-0.1,0,0,0,0
					c0-0.1,0,0,0,0c0,0.1,0-0.1,0,0c0,0,0,0,0,0c-0.1,0,0,0,0.1,0c0.1,0,0,0,0,0c-0.1,0-0.1-0.1-0.2-0.2c0,0.1-0.1,0.1,0,0
					c0.1,0,0.2,0,0.3,0c0.1,0.1,0.2,0.2,0.1,0.4c0,0.2-0.3,0.2-0.5,0.2c-0.1,0-0.1-0.1-0.2-0.2c0-0.2,0.1-0.3,0.2-0.4
					C17.1,29.1,16.6,28.6,16.2,28.9L16.2,28.9z"/>
			</g>
			<g>
				<path class="st0" d="M16.5,27.9c0,1.8,0,3.6-0.1,5.4c0,0.5,0.7,0.5,0.7,0c0.1-1.8,0.1-3.6,0.1-5.4
					C17.2,27.5,16.5,27.5,16.5,27.9L16.5,27.9z"/>
			</g>
			<g>
				<path class="st0" d="M14.8,28.1c1.5,1.4,3,2.9,4.3,4.4c0.3,0.3,0.8-0.2,0.5-0.5c-1.4-1.5-2.8-3-4.3-4.4
					C15,27.2,14.5,27.7,14.8,28.1L14.8,28.1z"/>
			</g>
			<g>
				<path class="st0" d="M14.8,32.2c0.7-0.6,1.3-1.3,2-1.9c0.8-0.7,1.6-1.3,2.4-2.1c0.3-0.3-0.2-0.8-0.5-0.5
					c-0.7,0.7-1.5,1.3-2.2,1.9c-0.8,0.6-1.4,1.4-2.2,2.1C14,32,14.5,32.5,14.8,32.2L14.8,32.2z"/>
			</g>
			<g>
				<path class="st0" d="M13.9,29.9c1,0.1,2.1,0.1,3.1,0.1c0.9,0,1.9-0.2,2.8,0c0.5,0.1,0.6-0.6,0.2-0.7c-0.9-0.2-1.8,0-2.8,0
					c-1.1,0-2.2,0-3.4-0.1C13.4,29.2,13.4,29.9,13.9,29.9L13.9,29.9z"/>
			</g>
			<g>
				<path class="st0" d="M18.2,29.5c1.5-0.6,2.9-1.1,4.4-1.6c0.4-0.2,0.2-0.8-0.2-0.7c-1.5,0.5-2.9,1-4.4,1.6
					C17.6,29,17.8,29.7,18.2,29.5L18.2,29.5z"/>
			</g>
			<g>
				<path class="st0" d="M27,27.1c1.2,0.2,2.4,0.1,3.5,0c0.2,0,0.2-0.4,0-0.4c-1.2,0.1-2.3,0.2-3.5,0C26.8,26.7,26.7,27.1,27,27.1
					L27,27.1z"/>
			</g>
			<g>
				<path class="st0" d="M30.4,26.3c0.1,0.2,0.1,0.5,0.1,0.7c0,0.2,0.4,0.1,0.3-0.1c0-0.2,0-0.5-0.1-0.7
					C30.6,26,30.3,26.1,30.4,26.3L30.4,26.3z"/>
			</g>
			<g>
				<path class="st0" d="M31.6,26.4c0,0.4,0.1,1.1,0.7,1c0.6,0,0.5-0.8,0.5-1.3c0-0.2-0.4-0.2-0.4,0c0,0.2,0.1,0.7-0.1,0.9
					C32,27.3,32,26.6,32,26.4C32,26.2,31.6,26.2,31.6,26.4L31.6,26.4z"/>
			</g>
			<g>
				<path class="st0" d="M30.9,26.8c0.3,0,0.5,0,0.8,0c0.2,0,0.2-0.4,0-0.4c-0.3,0-0.5,0-0.8,0C30.7,26.4,30.7,26.8,30.9,26.8
					L30.9,26.8z"/>
			</g>
			<g>
				<path class="st0" d="M33,26.8c1.6,0.2,3.1,0,4.7,0c0.2,0,0.2-0.4,0-0.4c-1.6,0-3.1,0.2-4.7,0C32.8,26.5,32.8,26.8,33,26.8
					L33,26.8z"/>
			</g>
			<g>
				<path class="st0" d="M38.9,28.1c-0.2,1.2-0.4,2.5,0,3.7c0.5,1.2,1.7,1.8,2.9,2c1.3,0.1,2.7-0.5,3.6-1.6c1.1-1.4,0.7-3.1,0.3-4.6
					c-0.1-0.4-0.8-0.3-0.7,0.2c0.4,1.3,0.8,2.6,0,3.8c-0.6,1-1.8,1.4-2.9,1.4c-1.1,0-2.2-0.6-2.5-1.7c-0.3-0.9-0.1-2,0.1-3
					C39.7,27.9,39,27.7,38.9,28.1L38.9,28.1z"/>
			</g>
			<g>
				<path class="st0" d="M41.7,29.2c-0.3,0.4-0.4,0.8-0.1,1.2c0.3,0.3,0.7,0.3,1.1,0.1c0.4-0.2,0.5-0.8,0.3-1.2
					c-0.2-0.5-0.8-0.6-1.2-0.3c-0.5,0.2-0.6,0.8-0.4,1.3c0.2,0.4,0.6,0.5,1,0.5c0.4,0,0.8-0.3,0.9-0.6c0.2-0.4,0-0.9-0.3-1.2
					c-0.6-0.5-1.2,0-1.3,0.6c-0.1,0.3-0.1,0.6,0.1,0.8c0.2,0.3,0.6,0.1,0.9-0.1c0.4-0.3,0.3-1-0.2-1.1c-0.4-0.1-1,0.2-0.9,0.7
					c0.1,0.3,0.5,0.4,0.8,0.4c0.4-0.1,0.5-0.6,0.3-0.9c-0.3-0.4-0.9,0-0.6,0.4c0.1,0.2,0,0,0.1-0.1c0,0,0.1,0,0.1,0c0,0-0.1,0,0,0
					c0,0-0.1,0,0,0c0.1,0.1,0.1,0.3,0.1,0.4c0,0,0.1,0,0,0c-0.1,0-0.1-0.1-0.1-0.1c0,0-0.1,0.1,0,0c-0.1,0,0.1,0,0.1,0
					c0.1,0,0.1,0.1,0.1,0.1c0,0.1,0,0,0,0c0,0.1,0,0,0,0c0,0,0-0.1,0,0c0,0,0-0.1,0-0.1c0,0,0.1-0.2,0-0.1c0,0,0-0.1,0-0.1
					c0,0,0.1-0.1,0,0c0,0,0,0,0.1-0.1c-0.1,0.1,0,0,0,0c0,0,0,0-0.1,0c0.1,0,0.2,0.2,0.2,0.3c0,0,0,0.1,0,0.1c0,0.1,0,0.1-0.1,0.1
					c0,0-0.2,0.1-0.2,0.1c-0.1,0-0.1,0-0.2,0c0,0-0.1,0-0.1,0c0,0-0.1-0.1,0,0c-0.2-0.1,0-0.5,0.2-0.4c0.1,0,0.1,0.2,0.1,0.2
					c0,0,0,0.1,0,0.1c0,0.1,0,0,0,0c0,0-0.1,0,0,0c0,0-0.1,0-0.1,0c0.1,0,0,0,0,0c0.1,0,0,0,0,0c0.1,0,0,0,0,0c0,0,0,0.1,0,0
					c0,0.1,0,0,0,0c0-0.1,0-0.1,0.1-0.2C42.5,29.3,42,28.8,41.7,29.2L41.7,29.2z"/>
			</g>
			<g>
				<path class="st0" d="M41.9,28.1c0,0.8,0.1,1.7,0.1,2.5c0,0.9-0.2,1.7-0.2,2.6c0,0.5,0.7,0.5,0.7,0c0-0.9,0.2-1.7,0.2-2.6
					c0-0.8-0.1-1.7-0.1-2.5C42.6,27.7,41.9,27.7,41.9,28.1L41.9,28.1z"/>
			</g>
			<g>
				<path class="st0" d="M40.5,31.9c0.8-0.6,1.5-1.3,2.4-1.9c0.8-0.5,1.6-1,2.2-1.7c0.3-0.3-0.2-0.9-0.5-0.5
					c-0.6,0.7-1.5,1.2-2.2,1.7c-0.8,0.6-1.6,1.3-2.3,1.9C39.7,31.7,40.2,32.2,40.5,31.9L40.5,31.9z"/>
			</g>
			<g>
				<path class="st0" d="M40.2,32.2c0.2-0.1,0.4-0.3,0.5-0.5c0.2-0.1,0.1-0.4,0-0.5c-0.1-0.1-0.4-0.1-0.5,0
					c-0.2,0.1-0.4,0.3-0.5,0.5c-0.2,0.1-0.1,0.4,0,0.5C39.8,32.4,40,32.4,40.2,32.2L40.2,32.2z"/>
			</g>
			<g>
				<path class="st0" d="M40.6,28.6c1.4,1.2,2.8,2.3,3.8,3.8c0.3,0.4,0.9,0,0.6-0.4c-1.1-1.5-2.5-2.7-4-3.9
					C40.7,27.8,40.2,28.3,40.6,28.6L40.6,28.6z"/>
			</g>
			<g>
				<path class="st0" d="M39.4,30.1c2,0.1,3.9-0.1,5.9-0.1c0.5,0,0.5-0.7,0-0.7c-2,0-3.9,0.2-5.9,0.1C39,29.3,39,30,39.4,30.1
					L39.4,30.1z"/>
			</g>
			<g>
				<path class="st0" d="M43.4,29.8c0.5,0,0.5-0.7,0-0.7S42.9,29.8,43.4,29.8L43.4,29.8z"/>
			</g>
			<g>
				<path class="st0" d="M44.3,29.4c1.1-0.5,2.3-0.9,3.4-1.4c1.1-0.5,2.2-1.1,3.3-1.6c0.4-0.2,0.1-0.8-0.4-0.6
					c-1.1,0.5-2.2,1.2-3.3,1.6c-1.1,0.5-2.3,0.9-3.4,1.4C43.5,29,43.8,29.6,44.3,29.4L44.3,29.4z"/>
			</g>
			<g>
				<path class="st0" d="M47.3,27.1c1.7,0.1,3.5,0.2,5.2,0.2c0.2,0,0.2-0.4,0-0.4c-1.7,0-3.5-0.1-5.2-0.2
					C47.1,26.7,47.1,27,47.3,27.1L47.3,27.1z"/>
			</g>
			<g>
				<path class="st0" d="M52.3,26.4c0,0.3,0,0.5,0.1,0.8c0.1,0.2,0.4,0.1,0.3-0.1c-0.1-0.2-0.1-0.5-0.1-0.7
					C52.7,26.2,52.3,26.2,52.3,26.4L52.3,26.4z"/>
			</g>
			<g>
				<path class="st0" d="M53.4,26.3c0,0.5,0,1.1,0.6,1.2c0.7,0.1,0.8-0.8,0.8-1.3c0-0.2-0.4-0.2-0.4,0c0,0.3,0,0.9-0.4,0.9
					c-0.3,0-0.3-0.6-0.3-0.8C53.8,26,53.4,26,53.4,26.3L53.4,26.3z"/>
			</g>
			<g>
				<path class="st0" d="M32,26.4c0,0.2,0,0.4,0.1,0.5c0,0.1,0.2,0.2,0.3,0.1c0.1-0.1,0.1-0.2,0.2-0.3c-0.1,0-0.2-0.1-0.3-0.1
					c0,0,0,0.1,0,0.1c0,0.2,0.4,0.2,0.4,0c0-0.1,0-0.2,0-0.2c0-0.2-0.4-0.2-0.4,0c0,0.1,0,0.2,0,0.2c0,0.2,0.4,0.2,0.4,0
					c0,0,0-0.1,0-0.1c0-0.2-0.3-0.3-0.3-0.1c0,0.1-0.1,0.2-0.1,0.2c0.1,0,0.2,0.1,0.3,0.1c0-0.1-0.1-0.3-0.1-0.5
					C32.4,26.1,32,26.1,32,26.4L32,26.4z"/>
			</g>
			<g>
				<path class="st0" d="M53.8,26.5c0,0.2,0,0.5,0,0.7c0,0.1,0.2,0.2,0.3,0.1c0.1-0.2,0.2-0.3,0.3-0.5c-0.1,0-0.2,0-0.4,0
					c0,0,0,0,0,0.1c0.1,0.1,0.2,0.1,0.3,0.2c0.1-0.2,0.1-0.4,0.1-0.6c0-0.1-0.1-0.2-0.2-0.2c-0.1,0-0.2,0-0.3,0.1
					c-0.2,0.1,0,0.4,0.1,0.3c0.2,0,0.3,0,0.5-0.1c0.2,0,0.1-0.4-0.1-0.3c-0.1,0-0.3,0-0.5,0c-0.2,0-0.2,0.3,0,0.4
					c0.2,0,0.4,0.1,0.5,0c0-0.1-0.1-0.2-0.1-0.3c-0.2,0-0.3,0-0.5,0.1c0,0.1,0.1,0.2,0.1,0.3c0,0,0.1,0,0.1,0
					c-0.1-0.1-0.1-0.1-0.2-0.2c0,0.2,0,0.3-0.1,0.4c-0.1,0.2,0.2,0.4,0.3,0.2c0-0.1,0.1-0.1,0.1-0.2c0-0.2-0.3-0.2-0.4,0
					c0,0.1-0.1,0.2-0.2,0.3c0.1,0,0.2,0.1,0.3,0.1c0-0.2,0-0.4,0-0.5C54.2,26.4,53.9,26.3,53.8,26.5L53.8,26.5z"/>
			</g>
			<g>
				<path class="st0" d="M64.3,27.6c-0.4,1.3-0.6,2.7,0,4c0.6,1.3,2.1,2,3.5,2c1.3,0,2.6-0.7,3.4-1.8c1.1-1.5,0.5-3.1-0.4-4.5
					c-0.3-0.4-0.9,0-0.6,0.4c0.8,1.2,1.3,2.5,0.4,3.8c-0.6,0.9-1.8,1.4-2.9,1.4c-1.2,0-2.4-0.8-2.8-1.9c-0.4-1-0.2-2.2,0.2-3.3
					C65.1,27.3,64.4,27.1,64.3,27.6L64.3,27.6z"/>
			</g>
			<g>
				<path class="st0" d="M67.5,28.8c-0.4,0.2-1,0.6-0.8,1.2c0.2,0.4,0.6,0.7,1,0.7c0.6,0,0.9-0.5,0.9-1c0-0.4-0.1-0.8-0.5-1
					c-0.4-0.2-0.9,0-1.1,0.5c-0.2,0.5,0,1.4,0.7,1.4c0.3,0,0.6-0.3,0.7-0.6c0.1-0.2,0-0.5-0.1-0.7c-0.3-0.3-0.8-0.3-1.1-0.2
					c-0.2,0.1-0.3,0.3-0.3,0.5c0,0.3,0.2,0.5,0.3,0.7c0.3,0.3,0.8-0.2,0.5-0.5c0,0,0,0-0.1-0.1c-0.1-0.1,0,0.1,0,0c0,0,0,0,0-0.1
					c0-0.1,0,0.1,0,0c0,0,0-0.1,0,0c0,0,0-0.1,0,0c0-0.1,0,0.1,0,0c0,0-0.1,0.1,0,0c0,0-0.1,0.1,0,0c0,0,0,0,0,0c-0.1,0.1,0,0,0,0
					c0.1,0-0.1,0,0,0c0,0,0,0,0.1,0c0,0,0,0,0.1,0c-0.1,0,0,0,0,0c0,0,0,0,0.1,0c0.1,0-0.1,0,0,0c0,0,0,0,0,0c0.1,0-0.1-0.1,0,0
					c0,0,0.1,0.1,0,0c0,0,0,0.1,0,0c0,0,0,0,0,0.1c0-0.1,0,0.1,0-0.1c0,0,0,0,0,0.1c0,0.1,0-0.1,0,0c0,0.1,0,0.1-0.1,0.1
					c0.1-0.1,0.1,0,0.2,0c-0.1,0,0.1,0.1,0,0c0,0,0,0,0,0c0,0,0,0,0-0.1c0,0,0-0.1,0,0c0,0,0-0.1,0-0.1c0,0,0-0.1,0,0
					c0,0,0-0.1,0-0.1c0,0,0-0.1,0,0c0,0,0-0.1,0-0.1c0,0.1,0,0,0,0c0,0,0.1-0.1,0,0c0.1,0,0,0,0,0c0.1,0,0,0,0,0c-0.1,0,0,0,0,0
					c0,0,0,0.1,0,0.1c0,0,0,0.1,0,0.2c0,0,0,0.1,0,0.1c0,0,0,0.1,0,0.1c0,0.1,0,0.1,0,0.1c0-0.1,0,0,0,0.1c0.1-0.1-0.1,0.1,0,0
					c0,0,0,0,0,0c-0.1,0,0.1,0,0,0c0,0-0.1,0-0.1,0c0.1,0,0,0,0,0c0,0,0,0-0.1,0c0.1,0,0,0,0,0c0,0-0.1,0-0.1,0c-0.1,0,0.1,0,0,0
					c0,0,0,0-0.1,0c0,0,0,0-0.1,0c0.1,0.1,0,0,0,0c0,0,0,0,0-0.1c0.1,0.1,0,0,0,0c0-0.1,0,0.1,0,0c0,0,0-0.1,0,0c0,0,0,0,0-0.1
					c0,0.1,0,0,0,0c0,0.1,0,0,0,0c0,0-0.1,0.1,0,0c0,0,0,0,0.1-0.1c-0.1,0.1,0,0,0,0c0,0,0.1,0,0.1-0.1c0,0,0.1-0.1,0.1,0
					c0.2-0.1,0.3-0.2,0.2-0.4C67.9,28.9,67.6,28.7,67.5,28.8L67.5,28.8z"/>
			</g>
			<g>
				<path class="st0" d="M67.6,27.9c0,1.7,0,3.5-0.2,5.2c-0.1,0.5,0.7,0.5,0.7,0c0.2-1.7,0.2-3.5,0.2-5.2
					C68.3,27.5,67.6,27.5,67.6,27.9L67.6,27.9z"/>
			</g>
			<g>
				<path class="st0" d="M64.6,30c2.2,0.1,4.4,0,6.6,0c0.5,0,0.5-0.7,0-0.7c-2.2,0-4.4,0.1-6.6,0C64.1,29.3,64.1,30,64.6,30L64.6,30
					z"/>
			</g>
			<g>
				<path class="st0" d="M65.7,32.2c1.4-1.2,2.5-2.6,3.9-3.7c0.4-0.3-0.2-0.8-0.5-0.5c-1.4,1.1-2.5,2.6-3.9,3.7
					C64.8,32,65.3,32.5,65.7,32.2L65.7,32.2z"/>
			</g>
			<g>
				<path class="st0" d="M65.8,28.3c0.8,0.6,1.4,1.2,2.1,1.9c0.6,0.7,1.4,1.1,1.9,1.9c0.3,0.4,0.9,0,0.6-0.4
					c-0.5-0.8-1.3-1.3-1.9-1.9c-0.8-0.8-1.5-1.6-2.4-2.2C65.7,27.4,65.4,28.1,65.8,28.3L65.8,28.3z"/>
			</g>
			<g>
				<path class="st0" d="M60.2,26.7c2.2,1.4,4.7,2.2,7.2,3.1c0.4,0.1,0.6-0.5,0.2-0.7c-2.4-0.8-4.9-1.7-7-3
					C60.1,25.9,59.8,26.5,60.2,26.7L60.2,26.7z"/>
			</g>
			<g>
				<path class="st0" d="M73.9,26.3c-0.1,1.4-0.1,2.8-0.1,4.3c0,0.5,0.7,0.5,0.7,0c0-1.4,0-2.8,0.1-4.3
					C74.6,25.8,73.9,25.8,73.9,26.3L73.9,26.3z"/>
			</g>
			<g>
				<path class="st0" d="M74.6,30.5c1.6,0,3.3,0,4.9,0c0.5,0,0.5-0.7,0-0.7c-1.6,0-3.3,0-4.9,0C74.1,29.8,74.1,30.5,74.6,30.5
					L74.6,30.5z"/>
			</g>
			<g>
				<path class="st0" d="M79.3,26.6c0.1,1.3,0,2.6,0.1,4c0,0.5,0.7,0.5,0.7,0c-0.1-1.3,0-2.6-0.1-4C80,26.1,79.3,26.1,79.3,26.6
					L79.3,26.6z"/>
			</g>
			<g>
				<path class="st0" d="M74.6,28.3c1.6,0.1,3.3,0,4.9,0c0.5,0,0.5-0.7,0-0.7c-1.6,0-3.3,0.1-4.9,0C74.2,27.6,74.2,28.3,74.6,28.3
					L74.6,28.3z"/>
			</g>
			<g>
				<path class="st0" d="M73.2,26.2c-0.1,0.2-0.1,0.5,0.1,0.7c0.1,0.2,0.4,0.3,0.6,0.3c0.2,0,0.4-0.2,0.4-0.4c0-0.2-0.2-0.4-0.4-0.4
					c0,0,0,0,0,0c0,0-0.1,0-0.1,0c0.1,0,0,0,0.1,0c0,0-0.1-0.1,0,0c0-0.1,0,0.1,0,0c0-0.1,0,0.1,0,0c0,0,0-0.1,0,0c0,0,0-0.1,0-0.1
					c0.1-0.2-0.1-0.4-0.2-0.4C73.5,25.9,73.3,26,73.2,26.2L73.2,26.2z"/>
			</g>
			<g>
				<path class="st0" d="M77.5,26.5c0,0.2,0,0.3,0.1,0.5c0.1,0.1,0.3,0.1,0.5,0.1c0.1,0,0.2-0.1,0.2-0.2c0-0.1-0.1-0.2-0.2-0.2
					c-0.1,0-0.1,0-0.2,0c0,0,0,0,0,0c0,0,0,0,0,0c0,0,0,0,0,0c0,0,0,0,0,0c0,0,0,0,0,0c0,0,0,0,0,0c0,0.1,0-0.1,0,0
					c0-0.1,0-0.1,0-0.2c0-0.1-0.1-0.2-0.2-0.2C77.6,26.3,77.5,26.4,77.5,26.5L77.5,26.5z"/>
			</g>
			<g>
				<path class="st0" d="M77.9,27.1c0,0.1,0,0.2,0,0.3c0,0.2,0.4,0.2,0.4,0c0-0.1,0-0.3,0-0.4c0-0.1-0.1-0.1-0.2-0.1
					C77.9,26.9,77.9,27,77.9,27.1L77.9,27.1z"/>
			</g>
			<g>
				<path class="st0" d="M79.4,26.6c-0.3,0-0.6,0.2-0.4,0.6c0.1,0.4,0.5,0.3,0.8,0.3c0.2,0,0.2-0.4,0-0.4c-0.1,0-0.2,0-0.3,0
					c0,0-0.1,0-0.2,0c0,0,0-0.1,0-0.1c0,0,0,0,0,0c0,0,0.1,0,0.1,0C79.6,27,79.6,26.7,79.4,26.6L79.4,26.6z"/>
			</g>
			<g>
				<path class="st0" d="M77.8,27.4c-0.2,0.4-0.2,0.8,0.1,1.1c0.4,0.5,1.1,0.3,1.7,0.3c0.2,0,0.2-0.4,0-0.4c-0.4,0-0.8,0.1-1.1,0
					c-0.4-0.1-0.5-0.6-0.3-0.9C78.3,27.4,77.9,27.2,77.8,27.4L77.8,27.4z"/>
			</g>
			<g>
				<path class="st0" d="M80.2,27.7c2.8-0.1,5.7,0,8.5,0c0.3,0,0.3-0.5,0-0.5c-2.8,0-5.7-0.1-8.5,0C79.9,27.2,79.9,27.7,80.2,27.7
					L80.2,27.7z"/>
			</g>
			<g>
				<path class="st0" d="M80.1,28.8c1.5-0.1,2.9,0,4.4,0c1.4,0,2.9-0.1,4.3-0.1c0.3,0,0.3-0.5,0-0.5c-1.3,0-2.7,0.1-4,0.1
					c-1.6,0-3.1-0.1-4.7,0C79.8,28.2,79.7,28.8,80.1,28.8L80.1,28.8z"/>
			</g>
			<g>
				<path class="st0" d="M88.5,27.5c0,0.3,0,0.6,0,0.9c0,0.3,0.5,0.3,0.5,0c0-0.3,0-0.6,0-0.9C89.1,27.1,88.6,27.1,88.5,27.5
					L88.5,27.5z"/>
			</g>
			<g>
				<path class="st0" d="M80.2,27.1c0.3,0,1.2,0.1,1.2-0.4c-0.1,0-0.2,0-0.4,0c0.3,0.8,1.6,0,0.8-0.7c-0.2-0.1-0.4,0.2-0.2,0.3
					c0.3,0.2-0.2,0.5-0.3,0.3c-0.1-0.2-0.3-0.2-0.4,0c0-0.1-0.1,0-0.1,0c-0.1,0-0.2,0-0.3,0c-0.1,0-0.3,0-0.4,0
					C79.9,26.7,79.9,27,80.2,27.1L80.2,27.1z"/>
			</g>
			<g>
				<path class="st0" d="M83,22.4c0.5,0,0.9-0.1,1.4,0c-0.1-0.1-0.2-0.2-0.3-0.3c0,0.5,0,0.9-0.1,1.4c0.1-0.1,0.2-0.2,0.3-0.3
					c-0.5,0-1.1,0-1.6,0c-0.3,0-0.3,0.5,0,0.5c0.5,0,1.1,0,1.6,0c0.2,0,0.3-0.1,0.3-0.3c0-0.5,0.1-0.9,0.1-1.4
					c0-0.2-0.1-0.2-0.3-0.3c-0.5-0.1-0.9,0-1.4,0C82.7,21.9,82.7,22.4,83,22.4L83,22.4z"/>
			</g>
			<g>
				<path class="st0" d="M84.7,22.6c0.4,0,0.8,0,0.9-0.4c0-0.1,0.2-0.7,0.2-0.6c0.2,0.2,0.1,0.7,0.1,1c0,0.4,0.1,0.8,0,1.2
					c0,0.1,0,0.2-0.1,0.3c-0.1,0.1-0.1,0.1,0,0c0-0.1-0.1-0.2-0.1-0.3c-0.2-0.7-0.4-0.8-1.1-0.8c-0.3,0-0.3,0.5,0,0.5
					c0.6,0,0.5,0.4,0.7,0.8c0.1,0.2,0.4,0.4,0.6,0.3c0.7-0.2,0.4-1.6,0.4-2c0-0.5,0-1.5-0.7-1.5c-0.3,0-0.6,0.3-0.6,0.6
					c0,0.1-0.1,0.3-0.1,0.4c0,0.2-0.2,0.1-0.4,0.1C84.3,22.1,84.3,22.6,84.7,22.6L84.7,22.6z"/>
			</g>
		</g>
	</g>
	<g>
		<path class="st0" d="M1.6,5.9C2.3,6.1,3,6,3.7,5.9c0.5,0,0.5-0.8,0-0.7c-0.7,0.1-1.3,0.1-2,0C1.3,5.1,1.1,5.8,1.6,5.9L1.6,5.9z"/>
	</g>
	<g>
		<path class="st0" d="M2.1,5.4C2,4.5,1.9,3.5,2.1,2.6c0.3-0.9,1.2-1.3,2-1.5C5,1,5.8,1,6.6,0.9c1.1,0,2.1-0.1,3.2-0.1
			c0.5,0,0.5-0.7,0-0.7c-1.2,0-2.5,0.1-3.7,0.1c-1,0-2,0.1-3,0.5c-2,0.8-2,3-1.7,4.9C1.5,6.1,2.2,5.9,2.1,5.4L2.1,5.4z"/>
	</g>
	<g>
		<path class="st0" d="M9.3,0.9c4,0,7.9,0,11.9,0c4.7-0.1,9.3,0.1,14,0.1c4.7,0,9.4-0.1,14.1-0.1c4.7,0,9.4,0.1,14.1,0.1
			c3.1,0,6.2-0.2,9.3-0.2c2.3,0,4.7,0.2,7,0.2c0.5,0,0.5-0.7,0-0.7c-3.3,0-6.6-0.2-9.8-0.1c-4.7,0.2-9.4,0.1-14.1,0.1
			c-9.4-0.1-18.8,0.1-28.1,0c-6.1-0.1-12.2,0-18.3,0C8.8,0.1,8.8,0.9,9.3,0.9L9.3,0.9z"/>
	</g>
	<g>
		<path class="st0" d="M82.7,5.3c-0.3,0.4,0,0.7,0.4,0.7c0.2,0,0.5,0,0.7,0c0.3,0,0.7,0,1,0c0.5,0.1,0.6-0.6,0.2-0.7
			c-0.4-0.1-0.8-0.1-1.2,0c-0.2,0-0.3,0-0.5,0c-0.1,0-0.1,0-0.2,0c-0.2,0-0.2,0,0,0.1c0,0.1,0.1,0.2,0.1,0.3c0,0,0,0.1-0.1,0.1
			C83.5,5.4,83,4.9,82.7,5.3L82.7,5.3z"/>
	</g>
	<g>
		<path class="st0" d="M85.4,5.6c0-1.4,0-3-0.9-4.1c-0.5-0.5-1-0.9-1.7-1.1c-1-0.4-2-0.2-3-0.2c-0.5,0-0.5,0.7,0,0.7
			c1.5,0,3.2-0.2,4.2,1.2c0.7,1,0.7,2.4,0.7,3.6C84.6,6.1,85.3,6.1,85.4,5.6L85.4,5.6z"/>
	</g>
	<g>
		<path class="st0" d="M4.4,23.1c0.1,0.2,0,0.5,0,0.7c0,0.2,0.4,0.2,0.4,0c0-0.3,0-0.6-0.1-0.8C4.6,22.7,4.3,22.8,4.4,23.1L4.4,23.1
			z"/>
	</g>
	<g>
		<path class="st0" d="M4.6,24.1c0.3,0,0.7,0,1,0c0.2,0,0.2-0.3,0-0.4c-0.3,0-0.7,0-1,0C4.4,23.8,4.4,24.1,4.6,24.1L4.6,24.1z"/>
	</g>
	<g>
		<path class="st0" d="M5.8,24c0-0.3,0-0.6,0-0.8c0-0.2-0.4-0.2-0.4,0c0,0.3,0,0.6,0,0.8C5.5,24.3,5.8,24.3,5.8,24L5.8,24z"/>
	</g>
	<g>
		<path class="st0" d="M5.7,23c-0.3-0.1-0.6,0-0.9-0.1c-0.2-0.1-0.3,0.3-0.1,0.3c0.3,0.1,0.6,0,0.9,0.1C5.8,23.4,5.9,23.1,5.7,23
			L5.7,23z"/>
	</g>
	<g>
		<path class="st0" d="M16.9,8.4c0,0.3,0,0.6,0,0.9c0,0.2,0.3,0.3,0.3,0.1c0-0.3,0.1-0.7,0.1-1C17.3,8.2,16.9,8.2,16.9,8.4L16.9,8.4
			z"/>
	</g>
	<g>
		<path class="st0" d="M17.1,9.6c0.3,0,0.6,0,1,0c0.2,0.1,0.3-0.3,0.1-0.3c-0.3-0.1-0.7-0.1-1-0.1C16.9,9.2,16.9,9.6,17.1,9.6
			L17.1,9.6z"/>
	</g>
	<g>
		<path class="st0" d="M18.5,9.5c0-0.3,0.1-0.7,0.1-1c0-0.2-0.4-0.2-0.4,0c0,0.3,0,0.6-0.1,0.9C18.1,9.6,18.4,9.7,18.5,9.5L18.5,9.5
			z"/>
	</g>
	<g>
		<path class="st0" d="M18.4,8.3c-0.4,0-0.8,0-1.2-0.1c-0.2,0-0.2,0.3,0,0.4c0.4,0,0.8,0.1,1.2,0.1C18.6,8.6,18.6,8.3,18.4,8.3
			L18.4,8.3z"/>
	</g>
	<g>
		<path class="st0" d="M36.1,18.4c0,0.6,0,1.2,0,1.7c0,0.2,0.4,0.2,0.4,0c0-0.6,0-1.2,0-1.7C36.5,18.2,36.1,18.2,36.1,18.4
			L36.1,18.4z"/>
	</g>
	<g>
		<path class="st0" d="M36.4,20.4c1,0,1.9-0.1,2.9,0c0.2,0,0.2-0.3,0-0.4c-1-0.1-1.9,0-2.9,0C36.2,20,36.2,20.4,36.4,20.4L36.4,20.4
			z"/>
	</g>
	<g>
		<path class="st0" d="M39.5,20.3c0-0.6,0-1.2,0-1.8c0-0.2-0.4-0.2-0.4,0c0,0.6,0,1.2,0,1.8C39.2,20.5,39.5,20.5,39.5,20.3
			L39.5,20.3z"/>
	</g>
	<g>
		<path class="st0" d="M39.4,18.4c-1-0.3-2,0.1-3-0.1c-0.2,0-0.3,0.3-0.1,0.3c1,0.1,2-0.2,3,0.1C39.5,18.8,39.6,18.4,39.4,18.4
			L39.4,18.4z"/>
	</g>
	<g>
		<path class="st0" d="M70.8,11.7c-0.1,0.9,0,1.9-0.1,2.8c0,0.2,0.4,0.2,0.4,0c0-0.9,0-1.9,0.1-2.8C71.2,11.4,70.8,11.4,70.8,11.7
			L70.8,11.7z"/>
	</g>
	<g>
		<path class="st0" d="M71,11.8c0.3,0,0.5,0,0.8,0c0.1,0,0.3,0,0.4,0c0.2,0,0.3,0,0.5,0c0.2,0,0.2-0.4,0-0.4c-0.3,0-0.5-0.1-0.8,0
			c-0.3,0-0.6,0-0.9,0C70.8,11.5,70.8,11.9,71,11.8L71,11.8z"/>
	</g>
	<g>
		<path class="st0" d="M72.6,11.6c0.1,1,0,1.9,0,2.9c0,0.2,0.4,0.2,0.4,0c0-1,0-1.9,0-2.9C72.9,11.4,72.6,11.4,72.6,11.6L72.6,11.6z
			"/>
	</g>
	<g>
		<path class="st0" d="M70.9,14.8c0.3,0,0.6,0,0.9,0c0.3,0,0.6-0.1,0.8,0c0.2,0.1,0.3-0.3,0.1-0.3c-0.2-0.1-0.5-0.1-0.7-0.1
			c-0.4,0-0.7,0-1.1,0C70.7,14.4,70.7,14.8,70.9,14.8L70.9,14.8z"/>
	</g>
	<g>
		<path class="st0" d="M80.2,25.1c0.8,0.2,1.6,0.1,2.3,0.1c0.5,0,0.5-0.7,0-0.7c-0.7,0-1.5,0.1-2.2-0.1C80,24.4,79.8,25.1,80.2,25.1
			L80.2,25.1z"/>
	</g>
	<g>
		<path class="st0" d="M74.5,24.9C74.5,24.9,74.5,24.9,74.5,24.9c-0.1-0.5-0.7-0.4-0.7,0c0,0.3,0.1,0.6,0,0.8
			c-0.1,0.4,0.6,0.6,0.7,0.2C74.5,25.6,74.5,25.3,74.5,24.9C74.2,25,74,25,73.8,25.1c0,0,0,0,0,0.1C73.9,25.6,74.6,25.4,74.5,24.9
			L74.5,24.9z"/>
	</g>
	<g>
		<path class="st0" d="M74.4,25.5c1.9-0.1,3.9,0,5.8,0c0.5,0,0.5-0.7,0-0.7c-1.9,0-3.9,0-5.8,0C73.9,24.8,73.9,25.5,74.4,25.5
			L74.4,25.5z"/>
	</g>
	<g>
		<path class="st0" d="M79.9,25c0,0.3,0,0.6,0,0.8c0.1,0.4,0.8,0.3,0.7-0.2c-0.1-0.2,0-0.4,0-0.6C80.6,24.6,79.9,24.6,79.9,25
			L79.9,25z"/>
	</g>
	<g>
		<path class="st0" d="M74.4,25.8c0.2,0.1,0.4,0.1,0.7,0.1c-0.1-0.1-0.2-0.2-0.4-0.4c0,0,0,0,0,0.1c0,0.2,0.2,0.4,0.5,0.3
			c0.2-0.1,0.4-0.2,0.6-0.2c-0.1-0.1-0.2-0.2-0.4-0.4c0,0.7,0.6,0.6,1.1,0.5c1.1-0.1,2.2,0.1,3.4-0.1c0.5,0,0.5-0.8,0-0.7
			c-0.8,0.1-1.5,0-2.2,0c-0.4,0-0.8,0-1.1,0.1c-0.1,0-0.1,0-0.2,0c-0.3,0-0.2-0.1-0.2,0.2c0-0.2-0.2-0.4-0.4-0.4
			c-0.3,0-0.5,0.1-0.8,0.2c0.2,0.1,0.3,0.2,0.5,0.3c0,0,0,0,0-0.1c0-0.2-0.2-0.3-0.4-0.4c-0.2,0-0.3,0-0.5,0
			C74.2,25,74,25.7,74.4,25.8L74.4,25.8z"/>
	</g>
	<g>
		<path class="st0" d="M73.8,9.4c-0.1,2.4,0.1,4.9,0,7.3c-0.1,2.6-0.1,5.2-0.1,7.9c0,0.3,0.5,0.3,0.5,0c0-2.5,0-5.1,0.1-7.6
			c0-1.3,0.1-2.5,0-3.8c-0.1-1.3-0.1-2.5-0.1-3.8C74.3,9.1,73.8,9.1,73.8,9.4L73.8,9.4z"/>
	</g>
	<g>
		<path class="st0" d="M74.3,9.6c0-0.4,0-0.9,0.5-1c0.4-0.1,0.9-0.1,1.4-0.1c0.3-0.1,0.2-0.6-0.1-0.5c-0.5,0.1-1.1,0-1.6,0.2
			c-0.6,0.2-0.7,0.9-0.7,1.4C73.8,10,74.3,10,74.3,9.6L74.3,9.6z"/>
	</g>
	<g>
		<path class="st0" d="M79,8.6c0.4,0,0.6,0.1,0.7,0.5c0.1,0.4,0.1,0.9,0.1,1.3c0,0.3,0.5,0.3,0.5,0c0-1-0.1-2.3-1.4-2.3
			C78.7,8.1,78.7,8.6,79,8.6L79,8.6z"/>
	</g>
	<g>
		<path class="st0" d="M79.8,10.2c0.1,2.4,0.2,4.9,0.1,7.3c-0.1,2.4,0.1,4.8,0.1,7.2c0,0.3,0.5,0.3,0.5,0c0-2.4-0.1-4.8-0.1-7.2
			c0.1-2.5,0-4.9-0.1-7.3C80.3,9.8,79.8,9.8,79.8,10.2L79.8,10.2z"/>
	</g>
	<g>
		<path class="st0" d="M74.3,13.8c0.7,0,1.5,0,2.2,0c1.2,0.1,2.4,0,3.6-0.1c0.3,0,0.3-0.5,0-0.5c-1.2,0-2.4,0.1-3.6,0.1
			c-0.7,0-1.5,0-2.2,0C74,13.3,74,13.8,74.3,13.8L74.3,13.8z"/>
	</g>
	<g>
		<path class="st0" d="M76.2,8.6c1,0,2.1,0,3.1,0c0.3,0,0.3-0.5,0-0.5c-1,0-2.1,0-3.1,0C75.9,8,75.9,8.6,76.2,8.6L76.2,8.6z"/>
	</g>
	<g>
		<path class="st0" d="M74.3,17.2c0.1,0,0.3,0,0.4,0c0.1,0,0.1-0.2,0-0.2c-0.1,0-0.3,0-0.4,0C74.1,17,74.1,17.2,74.3,17.2L74.3,17.2
			z"/>
	</g>
	<g>
		<path class="st0" d="M74.2,23.5c0.1,0,0.3,0,0.4,0c0.1,0,0.1-0.2,0-0.2c-0.1,0-0.3,0-0.5,0C74.1,23.4,74.1,23.5,74.2,23.5
			L74.2,23.5z"/>
	</g>
	<g>
		<path class="st0" d="M74.6,17.1c0.1,1,0,2.1,0,3.1c0,1.1,0,2.1,0,3.2c0,0.1,0.2,0.1,0.2,0c0-1,0.1-1.9,0-2.9c0-1.1,0.1-2.3,0-3.4
			C74.8,17,74.6,17,74.6,17.1L74.6,17.1z"/>
	</g>
	<g>
		<path class="st0" d="M75.1,15.2c-0.3,0.1-0.4,0.6-0.1,0.8c0.2,0.1,0.4,0,0.5-0.1c0.1-0.2,0.1-0.4,0-0.5c-0.1-0.1-0.4-0.1-0.5,0.1
			c-0.1,0.1,0,0.4,0.1,0.5c0.2,0.1,0.4,0,0.4-0.1c0-0.2-0.1-0.4-0.3-0.3c-0.1,0-0.1,0.2-0.1,0.3c0.1,0.1,0.2,0.1,0.3,0
			c0.1-0.1,0-0.2-0.1-0.1c-0.1,0-0.1,0-0.1,0.1c0,0,0.1,0.1,0.1,0.1c0.1-0.1,0.1-0.1,0.1-0.2c0-0.1-0.2-0.1-0.2,0c0,0,0,0.1,0,0.1
			c-0.1,0.1,0,0.2,0.1,0.1c0,0,0.1,0,0.1,0c0-0.1-0.1-0.1-0.1-0.1c0,0-0.1,0,0,0.1c0,0,0,0,0,0c0,0,0,0,0,0c0,0.1,0,0.2-0.1,0.1
			c-0.1-0.1-0.1-0.2,0-0.2c0.1-0.1,0.2-0.1,0.2,0c0,0.1,0,0.2-0.1,0.3c-0.1,0.1-0.2,0-0.2,0c-0.1-0.1-0.1-0.4,0.1-0.4
			C75.3,15.4,75.3,15.2,75.1,15.2L75.1,15.2z"/>
	</g>
	<g>
		<path class="st0" d="M75.4,15.8c0.4,0,0.7,0,1.1,0c0.2,0,0.2-0.4,0-0.4c-0.4,0-0.7,0-1.1,0C75.2,15.5,75.2,15.8,75.4,15.8
			L75.4,15.8z"/>
	</g>
	<g>
		<g>
			<path class="st0" d="M60,7.6c-0.3,0.3-0.3,0.8-0.3,1.1c0,0.8,0,1.5,0,2.3c0,2,0.1,3.9,0.1,5.9c0,0.5,0.7,0.5,0.7,0c0,0,0,0,0-0.1
				c0-0.5-0.7-0.5-0.7,0c0,0,0,0,0,0.1c0.2,0,0.5,0,0.7,0c0-1.6-0.1-3.2-0.1-4.9c0-0.8,0-1.6,0-2.3c0-0.3-0.2-1.4,0.1-1.7
				C60.9,7.8,60.4,7.3,60,7.6L60,7.6z"/>
		</g>
		<g>
			<path class="st0" d="M60.6,8.3c0.5-0.2,1.2,0,1.7-0.1c0.7,0,1.5,0,2.2,0c1.5,0,3,0.1,4.5,0.1c0.5,0,0.5-0.7,0-0.7
				c-1.5,0-3,0-4.5-0.1c-0.8,0-1.7,0-2.5,0c-0.5,0-1.1-0.1-1.6,0.1C60,7.7,60.1,8.4,60.6,8.3L60.6,8.3z"/>
		</g>
		<g>
			<path class="st0" d="M68.8,8.1c-0.1,1.5,0,3,0,4.5c0,1.5,0,2.9,0,4.3c0,0.5,0.7,0.5,0.7,0c0.1-1.5,0.1-2.9,0-4.3
				c0-1.5-0.1-3,0-4.5C69.5,7.6,68.8,7.6,68.8,8.1L68.8,8.1z"/>
		</g>
		<g>
			<path class="st0" d="M60.5,17.3c0.4-0.2,1.2-0.1,1.6-0.1c0.8,0,1.6,0.1,2.4,0.1c0.8,0,1.6,0,2.4-0.1c0.7-0.1,1.3,0,2-0.1
				c0.5-0.1,0.3-0.8-0.2-0.7c-0.7,0.1-1.6,0.1-2.3,0.1c-0.8,0.1-1.6,0-2.4,0c-0.8,0-1.6-0.1-2.4-0.1c-0.5,0-1,0-1.5,0.2
				C59.7,16.9,60.1,17.5,60.5,17.3L60.5,17.3z"/>
		</g>
		<g>
			<path class="st0" d="M60.1,12.6c3,0.2,6,0,8.9,0c0.2,0,0.2-0.4,0-0.4c-3,0-6,0.2-8.9,0C59.9,12.2,59.9,12.6,60.1,12.6L60.1,12.6z
				"/>
		</g>
	</g>
	<g>
		<g>
			<path class="st0" d="M46.7,7.6c-0.3,0.3-0.3,0.8-0.3,1.1c0,0.8,0,1.5,0,2.3c0,2,0.1,3.9,0.1,5.9c0,0.5,0.7,0.5,0.7,0
				c0,0,0,0,0-0.1c0-0.5-0.7-0.5-0.7,0c0,0,0,0,0,0.1c0.2,0,0.5,0,0.7,0c0-1.6-0.1-3.2-0.1-4.9c0-0.8,0-1.6,0-2.3
				c0-0.3-0.2-1.4,0.1-1.7C47.6,7.8,47.1,7.3,46.7,7.6L46.7,7.6z"/>
		</g>
		<g>
			<path class="st0" d="M47.2,8.3c0.5-0.2,1.2,0,1.7-0.1c0.7,0,1.5,0,2.2,0c1.5,0,3,0.1,4.5,0.1c0.5,0,0.5-0.7,0-0.7
				c-1.5,0-3,0-4.5-0.1c-0.8,0-1.7,0-2.5,0c-0.5,0-1.1-0.1-1.6,0.1C46.6,7.7,46.8,8.4,47.2,8.3L47.2,8.3z"/>
		</g>
		<g>
			<path class="st0" d="M55.4,8.1c-0.1,1.5,0,3,0,4.5c0,1.5,0,2.9,0,4.3c0,0.5,0.7,0.5,0.7,0c0.1-1.5,0.1-2.9,0-4.3
				c0-1.5-0.1-3,0-4.5C56.2,7.6,55.5,7.6,55.4,8.1L55.4,8.1z"/>
		</g>
		<g>
			<path class="st0" d="M47.2,17.3c0.4-0.2,1.2-0.1,1.6-0.1c0.8,0,1.6,0.1,2.4,0.1c0.8,0,1.6,0,2.4-0.1c0.7-0.1,1.3,0,2-0.1
				c0.5-0.1,0.3-0.8-0.2-0.7c-0.7,0.1-1.6,0.1-2.3,0.1c-0.8,0.1-1.6,0-2.4,0c-0.8,0-1.6-0.1-2.4-0.1c-0.5,0-1,0-1.5,0.2
				C46.4,16.9,46.8,17.5,47.2,17.3L47.2,17.3z"/>
		</g>
		<g>
			<path class="st0" d="M46.8,12.6c3,0.2,6,0,8.9,0c0.2,0,0.2-0.4,0-0.4c-3,0-6,0.2-8.9,0C46.5,12.2,46.5,12.6,46.8,12.6L46.8,12.6z
				"/>
		</g>
	</g>
	<g>
		<g>
			<path class="st0" d="M33.2,7.6c-0.3,0.3-0.3,0.8-0.3,1.1c0,0.8,0,1.5,0,2.3c0,2,0.1,3.9,0.1,5.9c0,0.5,0.7,0.5,0.7,0
				c0,0,0,0,0-0.1c0-0.5-0.7-0.5-0.7,0c0,0,0,0,0,0.1c0.2,0,0.5,0,0.7,0c0-1.6-0.1-3.2-0.1-4.9c0-0.8,0-1.6,0-2.3
				c0-0.3-0.2-1.4,0.1-1.7C34.1,7.8,33.6,7.3,33.2,7.6L33.2,7.6z"/>
		</g>
		<g>
			<path class="st0" d="M33.8,8.3c0.5-0.2,1.2,0,1.7-0.1c0.7,0,1.5,0,2.2,0c1.5,0,3,0.1,4.5,0.1c0.5,0,0.5-0.7,0-0.7
				c-1.5,0-3,0-4.5-0.1c-0.8,0-1.7,0-2.5,0c-0.5,0-1.1-0.1-1.6,0.1C33.1,7.7,33.3,8.4,33.8,8.3L33.8,8.3z"/>
		</g>
		<g>
			<path class="st0" d="M42,8.1c-0.1,1.5,0,3,0,4.5c0,1.5,0,2.9,0,4.3c0,0.5,0.7,0.5,0.7,0c0.1-1.5,0.1-2.9,0-4.3c0-1.5-0.1-3,0-4.5
				C42.7,7.6,42,7.6,42,8.1L42,8.1z"/>
		</g>
		<g>
			<path class="st0" d="M33.7,17.3c0.4-0.2,1.2-0.1,1.6-0.1c0.8,0,1.6,0.1,2.4,0.1c0.8,0,1.6,0,2.4-0.1c0.7-0.1,1.3,0,2-0.1
				c0.5-0.1,0.3-0.8-0.2-0.7c-0.7,0.1-1.6,0.1-2.3,0.1c-0.8,0.1-1.6,0-2.4,0c-0.8,0-1.6-0.1-2.4-0.1c-0.5,0-1,0-1.5,0.2
				C32.9,16.9,33.3,17.5,33.7,17.3L33.7,17.3z"/>
		</g>
		<g>
			<path class="st0" d="M33.3,12.6c3,0.2,6,0,8.9,0c0.2,0,0.2-0.4,0-0.4c-3,0-6,0.2-8.9,0C33.1,12.2,33.1,12.6,33.3,12.6L33.3,12.6z
				"/>
		</g>
	</g>
	<g>
		<g>
			<path class="st0" d="M19.8,7.6c-0.3,0.3-0.3,0.8-0.3,1.1c0,0.8,0,1.5,0,2.3c0,2,0.1,3.9,0.1,5.9c0,0.5,0.7,0.5,0.7,0
				c0,0,0,0,0-0.1c0-0.5-0.7-0.5-0.7,0c0,0,0,0,0,0.1c0.2,0,0.5,0,0.7,0c0-1.6-0.1-3.2-0.1-4.9c0-0.8,0-1.6,0-2.3
				c0-0.3-0.2-1.4,0.1-1.7C20.6,7.8,20.1,7.3,19.8,7.6L19.8,7.6z"/>
		</g>
		<g>
			<path class="st0" d="M20.3,8.3c0.5-0.2,1.2,0,1.7-0.1c0.7,0,1.5,0,2.2,0c1.5,0,3,0.1,4.5,0.1c0.5,0,0.5-0.7,0-0.7
				c-1.5,0-3,0-4.5-0.1c-0.8,0-1.7,0-2.5,0c-0.5,0-1.1-0.1-1.6,0.1C19.7,7.7,19.8,8.4,20.3,8.3L20.3,8.3z"/>
		</g>
		<g>
			<path class="st0" d="M28.5,8.1c-0.1,1.5,0,3,0,4.5c0,1.5,0,2.9,0,4.3c0,0.5,0.7,0.5,0.7,0c0.1-1.5,0.1-2.9,0-4.3
				c0-1.5-0.1-3,0-4.5C29.2,7.6,28.5,7.6,28.5,8.1L28.5,8.1z"/>
		</g>
		<g>
			<path class="st0" d="M20.2,17.3c0.4-0.2,1.2-0.1,1.6-0.1c0.8,0,1.6,0.1,2.4,0.1c0.8,0,1.6,0,2.4-0.1c0.7-0.1,1.3,0,2-0.1
				c0.5-0.1,0.3-0.8-0.2-0.7c-0.7,0.1-1.6,0.1-2.3,0.1c-0.8,0.1-1.6,0-2.4,0c-0.8,0-1.6-0.1-2.4-0.1c-0.5,0-1,0-1.5,0.2
				C19.5,16.9,19.8,17.5,20.2,17.3L20.2,17.3z"/>
		</g>
		<g>
			<path class="st0" d="M19.8,12.6c3,0.2,6,0,8.9,0c0.2,0,0.2-0.4,0-0.4c-3,0-6,0.2-8.9,0C19.6,12.2,19.6,12.6,19.8,12.6L19.8,12.6z
				"/>
		</g>
	</g>
	<g>
		<g>
			<path class="st0" d="M6.4,7.6C6.1,7.9,6.1,8.4,6.1,8.8c0,0.8,0,1.5,0,2.3c0,2,0.1,3.9,0.1,5.9c0,0.5,0.7,0.5,0.7,0c0,0,0,0,0-0.1
				c0-0.5-0.7-0.5-0.7,0c0,0,0,0,0,0.1c0.2,0,0.5,0,0.7,0c0-1.6-0.1-3.2-0.1-4.9c0-0.8,0-1.6,0-2.3c0-0.3-0.2-1.4,0.1-1.7
				C7.3,7.8,6.8,7.3,6.4,7.6L6.4,7.6z"/>
		</g>
		<g>
			<path class="st0" d="M7,8.3c0.5-0.2,1.2,0,1.7-0.1c0.7,0,1.5,0,2.2,0c1.5,0,3,0.1,4.5,0.1c0.5,0,0.5-0.7,0-0.7
				c-1.5,0-3,0-4.5-0.1c-0.8,0-1.7,0-2.5,0c-0.5,0-1.1-0.1-1.6,0.1C6.3,7.7,6.5,8.4,7,8.3L7,8.3z"/>
		</g>
		<g>
			<path class="st0" d="M15.1,8.1c-0.1,1.5,0,3,0,4.5c0,1.5,0,2.9,0,4.3c0,0.5,0.7,0.5,0.7,0c0.1-1.5,0.1-2.9,0-4.3
				c0-1.5-0.1-3,0-4.5C15.9,7.6,15.2,7.6,15.1,8.1L15.1,8.1z"/>
		</g>
		<g>
			<path class="st0" d="M6.9,17.3c0.4-0.2,1.2-0.1,1.6-0.1c0.8,0,1.6,0.1,2.4,0.1c0.8,0,1.6,0,2.4-0.1c0.7-0.1,1.3,0,2-0.1
				c0.5-0.1,0.3-0.8-0.2-0.7c-0.7,0.1-1.6,0.1-2.3,0.1c-0.8,0.1-1.6,0-2.4,0c-0.8,0-1.6-0.1-2.4-0.1c-0.5,0-1,0-1.5,0.2
				C6.1,16.9,6.5,17.5,6.9,17.3L6.9,17.3z"/>
		</g>
		<g>
			<path class="st0" d="M6.5,12.6c3,0.2,6,0,8.9,0c0.2,0,0.2-0.4,0-0.4c-3,0-6,0.2-8.9,0C6.2,12.2,6.2,12.6,6.5,12.6L6.5,12.6z"/>
		</g>
	</g>
</g>
</svg>
